<svg width="1376" height="205" viewBox="0 0 1376 205" fill="none" xmlns="http://www.w3.org/2000/svg">
<g clip-path="url(#clip0_56_135)">
<path d="M21.5 173.5V227.333C21.5 229.542 23.2909 231.333 25.5 231.333H60.5C62.7091 231.333 64.5 229.542 64.5 227.333V173.5M64.5 115.667V30.2408C64.5 29.381 64.223 28.5441 63.71 27.8541L46.21 4.31727C44.6106 2.16615 41.3894 2.16615 39.79 4.31728L22.29 27.8541C21.777 28.5441 21.5 29.381 21.5 30.2408V115.667M107.5 173.5V227.333C107.5 229.542 109.291 231.333 111.5 231.333H146.5C148.709 231.333 150.5 229.542 150.5 227.333V173.5M150.5 115.667V30.2408C150.5 29.381 150.223 28.5441 149.71 27.8541L132.21 4.31727C130.611 2.16615 127.389 2.16615 125.79 4.31728L108.29 27.8541C107.777 28.5441 107.5 29.381 107.5 30.2408V115.667M172 119.667V169.5C172 171.709 170.209 173.5 168 173.5H4C1.79086 173.5 0 171.709 0 169.5V119.667C0 117.458 1.79086 115.667 4 115.667H168C170.209 115.667 172 117.458 172 119.667Z" stroke="#ECEAE9" stroke-width="4" stroke-linecap="round" stroke-linejoin="round"/>
<path d="M193.5 173.5V227.333C193.5 229.542 195.291 231.333 197.5 231.333H232.5C234.709 231.333 236.5 229.542 236.5 227.333V173.5M236.5 115.667V30.2408C236.5 29.381 236.223 28.5441 235.71 27.8541L218.21 4.31727C216.611 2.16615 213.389 2.16615 211.79 4.31728L194.29 27.8541C193.777 28.5441 193.5 29.381 193.5 30.2408V115.667M279.5 173.5V227.333C279.5 229.542 281.291 231.333 283.5 231.333H318.5C320.709 231.333 322.5 229.542 322.5 227.333V173.5M322.5 115.667V30.2408C322.5 29.381 322.223 28.5441 321.71 27.8541L304.21 4.31727C302.611 2.16615 299.389 2.16615 297.79 4.31728L280.29 27.8541C279.777 28.5441 279.5 29.381 279.5 30.2408V115.667M344 119.667V169.5C344 171.709 342.209 173.5 340 173.5H176C173.791 173.5 172 171.709 172 169.5V119.667C172 117.458 173.791 115.667 176 115.667H340C342.209 115.667 344 117.458 344 119.667Z" stroke="#ECEAE9" stroke-width="4" stroke-linecap="round" stroke-linejoin="round"/>
<path d="M365.5 173.5V227.333C365.5 229.542 367.291 231.333 369.5 231.333H404.5C406.709 231.333 408.5 229.542 408.5 227.333V173.5M408.5 115.667V30.2408C408.5 29.381 408.223 28.5441 407.71 27.8541L390.21 4.31727C388.611 2.16615 385.389 2.16615 383.79 4.31728L366.29 27.8541C365.777 28.5441 365.5 29.381 365.5 30.2408V115.667M451.5 173.5V227.333C451.5 229.542 453.291 231.333 455.5 231.333H490.5C492.709 231.333 494.5 229.542 494.5 227.333V173.5M494.5 115.667V30.2408C494.5 29.381 494.223 28.5441 493.71 27.8541L476.21 4.31727C474.611 2.16615 471.389 2.16615 469.79 4.31728L452.29 27.8541C451.777 28.5441 451.5 29.381 451.5 30.2408V115.667M516 119.667V169.5C516 171.709 514.209 173.5 512 173.5H348C345.791 173.5 344 171.709 344 169.5V119.667C344 117.458 345.791 115.667 348 115.667H512C514.209 115.667 516 117.458 516 119.667Z" stroke="#ECEAE9" stroke-width="4" stroke-linecap="round" stroke-linejoin="round"/>
<path d="M537.5 173.5V227.333C537.5 229.542 539.291 231.333 541.5 231.333H576.5C578.709 231.333 580.5 229.542 580.5 227.333V173.5M580.5 115.667V30.2408C580.5 29.381 580.223 28.5441 579.71 27.8541L562.21 4.31727C560.611 2.16615 557.389 2.16615 555.79 4.31728L538.29 27.8541C537.777 28.5441 537.5 29.381 537.5 30.2408V115.667M623.5 173.5V227.333C623.5 229.542 625.291 231.333 627.5 231.333H662.5C664.709 231.333 666.5 229.542 666.5 227.333V173.5M666.5 115.667V30.2408C666.5 29.381 666.223 28.5441 665.71 27.8541L648.21 4.31727C646.611 2.16615 643.389 2.16615 641.79 4.31728L624.29 27.8541C623.777 28.5441 623.5 29.381 623.5 30.2408V115.667M688 119.667V169.5C688 171.709 686.209 173.5 684 173.5H520C517.791 173.5 516 171.709 516 169.5V119.667C516 117.458 517.791 115.667 520 115.667H684C686.209 115.667 688 117.458 688 119.667Z" stroke="#ECEAE9" stroke-width="4" stroke-linecap="round" stroke-linejoin="round"/>
<path d="M709.5 173.5V227.333C709.5 229.542 711.291 231.333 713.5 231.333H748.5C750.709 231.333 752.5 229.542 752.5 227.333V173.5M752.5 115.667V30.2408C752.5 29.381 752.223 28.5441 751.71 27.8541L734.21 4.31727C732.611 2.16615 729.389 2.16615 727.79 4.31728L710.29 27.8541C709.777 28.5441 709.5 29.381 709.5 30.2408V115.667M795.5 173.5V227.333C795.5 229.542 797.291 231.333 799.5 231.333H834.5C836.709 231.333 838.5 229.542 838.5 227.333V173.5M838.5 115.667V30.2408C838.5 29.381 838.223 28.5441 837.71 27.8541L820.21 4.31727C818.611 2.16615 815.389 2.16615 813.79 4.31728L796.29 27.8541C795.777 28.5441 795.5 29.381 795.5 30.2408V115.667M860 119.667V169.5C860 171.709 858.209 173.5 856 173.5H692C689.791 173.5 688 171.709 688 169.5V119.667C688 117.458 689.791 115.667 692 115.667H856C858.209 115.667 860 117.458 860 119.667Z" stroke="#ECEAE9" stroke-width="4" stroke-linecap="round" stroke-linejoin="round"/>
<path d="M881.5 173.5V227.333C881.5 229.542 883.291 231.333 885.5 231.333H920.5C922.709 231.333 924.5 229.542 924.5 227.333V173.5M924.5 115.667V30.2408C924.5 29.381 924.223 28.5441 923.71 27.8541L906.21 4.31727C904.611 2.16615 901.389 2.16615 899.79 4.31728L882.29 27.8541C881.777 28.5441 881.5 29.381 881.5 30.2408V115.667M967.5 173.5V227.333C967.5 229.542 969.291 231.333 971.5 231.333H1006.5C1008.71 231.333 1010.5 229.542 1010.5 227.333V173.5M1010.5 115.667V30.2408C1010.5 29.381 1010.22 28.5441 1009.71 27.8541L992.21 4.31727C990.611 2.16615 987.389 2.16615 985.79 4.31728L968.29 27.8541C967.777 28.5441 967.5 29.381 967.5 30.2408V115.667M1032 119.667V169.5C1032 171.709 1030.21 173.5 1028 173.5H864C861.791 173.5 860 171.709 860 169.5V119.667C860 117.458 861.791 115.667 864 115.667H1028C1030.21 115.667 1032 117.458 1032 119.667Z" stroke="#ECEAE9" stroke-width="4" stroke-linecap="round" stroke-linejoin="round"/>
<path d="M1053.5 173.5V227.333C1053.5 229.542 1055.29 231.333 1057.5 231.333H1092.5C1094.71 231.333 1096.5 229.542 1096.5 227.333V173.5M1096.5 115.667V30.2408C1096.5 29.381 1096.22 28.5441 1095.71 27.8541L1078.21 4.31727C1076.61 2.16615 1073.39 2.16615 1071.79 4.31728L1054.29 27.8541C1053.78 28.5441 1053.5 29.381 1053.5 30.2408V115.667M1139.5 173.5V227.333C1139.5 229.542 1141.29 231.333 1143.5 231.333H1178.5C1180.71 231.333 1182.5 229.542 1182.5 227.333V173.5M1182.5 115.667V30.2408C1182.5 29.381 1182.22 28.5441 1181.71 27.8541L1164.21 4.31727C1162.61 2.16615 1159.39 2.16615 1157.79 4.31728L1140.29 27.8541C1139.78 28.5441 1139.5 29.381 1139.5 30.2408V115.667M1204 119.667V169.5C1204 171.709 1202.21 173.5 1200 173.5H1036C1033.79 173.5 1032 171.709 1032 169.5V119.667C1032 117.458 1033.79 115.667 1036 115.667H1200C1202.21 115.667 1204 117.458 1204 119.667Z" stroke="#ECEAE9" stroke-width="4" stroke-linecap="round" stroke-linejoin="round"/>
<path d="M1225.5 173.5V227.333C1225.5 229.542 1227.29 231.333 1229.5 231.333H1264.5C1266.71 231.333 1268.5 229.542 1268.5 227.333V173.5M1268.5 115.667V30.2408C1268.5 29.381 1268.22 28.5441 1267.71 27.8541L1250.21 4.31727C1248.61 2.16615 1245.39 2.16615 1243.79 4.31728L1226.29 27.8541C1225.78 28.5441 1225.5 29.381 1225.5 30.2408V115.667M1311.5 173.5V227.333C1311.5 229.542 1313.29 231.333 1315.5 231.333H1350.5C1352.71 231.333 1354.5 229.542 1354.5 227.333V173.5M1354.5 115.667V30.2408C1354.5 29.381 1354.22 28.5441 1353.71 27.8541L1336.21 4.31727C1334.61 2.16615 1331.39 2.16615 1329.79 4.31728L1312.29 27.8541C1311.78 28.5441 1311.5 29.381 1311.5 30.2408V115.667M1376 119.667V169.5C1376 171.709 1374.21 173.5 1372 173.5H1208C1205.79 173.5 1204 171.709 1204 169.5V119.667C1204 117.458 1205.79 115.667 1208 115.667H1372C1374.21 115.667 1376 117.458 1376 119.667Z" stroke="#ECEAE9" stroke-width="4" stroke-linecap="round" stroke-linejoin="round"/>
</g>
<defs>
<clipPath id="clip0_56_135">
<rect width="1376" height="205" fill="white"/>
</clipPath>
</defs>
</svg>
