<svg width="432" height="129" viewBox="0 0 432 129" fill="none" xmlns="http://www.w3.org/2000/svg">
<g clip-path="url(#clip0_86_344)">
<path d="M13.5004 108.945V141.26C13.5004 143.469 15.2912 145.26 17.5004 145.26H36.5012C38.7103 145.26 40.5012 143.469 40.5012 141.26V108.945M40.5012 72.63V19.4816C40.5012 18.6218 40.2241 17.7849 39.7111 17.0949L30.2107 4.31728C28.6113 2.16616 25.3902 2.16615 23.7908 4.31728L14.2904 17.0949C13.7774 17.7849 13.5004 18.6218 13.5004 19.4816V72.63M67.5019 108.945V141.26C67.5019 143.469 69.2928 145.26 71.5019 145.26H90.5027C92.7119 145.26 94.5027 143.469 94.5027 141.26V108.945M94.5027 72.63V19.4816C94.5027 18.6218 94.2257 17.7849 93.7127 17.0949L84.2123 4.31728C82.6129 2.16616 79.3918 2.16615 77.7924 4.31728L68.292 17.0949C67.779 17.7849 67.5019 18.6218 67.5019 19.4816V72.63M108.003 76.63V104.945C108.003 107.154 106.212 108.945 104.003 108.945H4C1.79086 108.945 0 107.154 0 104.945V76.63C0 74.4209 1.79086 72.63 4 72.63H104.003C106.212 72.63 108.003 74.4209 108.003 76.63Z" stroke="#ECEAE9" stroke-width="4" stroke-linecap="round" stroke-linejoin="round"/>
<path d="M121.503 108.945V141.26C121.503 143.469 123.294 145.26 125.503 145.26H144.504C146.713 145.26 148.504 143.469 148.504 141.26V108.945M148.504 72.63V19.4816C148.504 18.6218 148.227 17.7849 147.714 17.0949L138.214 4.31728C136.614 2.16616 133.393 2.16615 131.794 4.31728L122.293 17.0949C121.78 17.7849 121.503 18.6218 121.503 19.4816V72.63M175.505 108.945V141.26C175.505 143.469 177.296 145.26 179.505 145.26H198.506C200.715 145.26 202.506 143.469 202.506 141.26V108.945M202.506 72.63V19.4816C202.506 18.6218 202.229 17.7849 201.716 17.0949L192.215 4.31728C190.616 2.16616 187.395 2.16615 185.795 4.31728L176.295 17.0949C175.782 17.7849 175.505 18.6218 175.505 19.4816V72.63M216.006 76.63V104.945C216.006 107.154 214.215 108.945 212.006 108.945H112.003C109.794 108.945 108.003 107.154 108.003 104.945V76.63C108.003 74.4209 109.794 72.63 112.003 72.63H212.006C214.215 72.63 216.006 74.4209 216.006 76.63Z" stroke="#ECEAE9" stroke-width="4" stroke-linecap="round" stroke-linejoin="round"/>
<path d="M229.507 108.945V141.26C229.507 143.469 231.297 145.26 233.507 145.26H252.507C254.717 145.26 256.507 143.469 256.507 141.26V108.945M256.507 72.63V19.4816C256.507 18.6218 256.23 17.7849 255.717 17.0949L246.217 4.31728C244.618 2.16616 241.396 2.16615 239.797 4.31728L230.297 17.0949C229.784 17.7849 229.507 18.6218 229.507 19.4816V72.63M283.508 108.945V141.26C283.508 143.469 285.299 145.26 287.508 145.26H306.509C308.718 145.26 310.509 143.469 310.509 141.26V108.945M310.509 72.63V19.4816C310.509 18.6218 310.232 17.7849 309.719 17.0949L300.219 4.31728C298.619 2.16616 295.398 2.16615 293.799 4.31728L284.298 17.0949C283.785 17.7849 283.508 18.6218 283.508 19.4816V72.63M324.009 76.63V104.945C324.009 107.154 322.218 108.945 320.009 108.945H220.006C217.797 108.945 216.006 107.154 216.006 104.945V76.63C216.006 74.4209 217.797 72.63 220.006 72.63H320.009C322.218 72.63 324.009 74.4209 324.009 76.63Z" stroke="#ECEAE9" stroke-width="4" stroke-linecap="round" stroke-linejoin="round"/>
<path d="M337.51 108.945V141.26C337.51 143.469 339.301 145.26 341.51 145.26H360.51C362.72 145.26 364.51 143.469 364.51 141.26V108.945M364.51 72.63V19.4816C364.51 18.6218 364.233 17.7849 363.72 17.0949L354.22 4.31728C352.621 2.16616 349.399 2.16615 347.8 4.31728L338.3 17.0949C337.787 17.7849 337.51 18.6218 337.51 19.4816V72.63M391.511 108.945V141.26C391.511 143.469 393.302 145.26 395.511 145.26H414.512C416.721 145.26 418.512 143.469 418.512 141.26V108.945M418.512 72.63V19.4816C418.512 18.6218 418.235 17.7849 417.722 17.0949L408.222 4.31728C406.622 2.16616 403.401 2.16615 401.802 4.31728L392.301 17.0949C391.788 17.7849 391.511 18.6218 391.511 19.4816V72.63M432.012 76.63V104.945C432.012 107.154 430.222 108.945 428.012 108.945H328.009C325.8 108.945 324.009 107.154 324.009 104.945V76.63C324.009 74.4209 325.8 72.63 328.009 72.63H428.012C430.222 72.63 432.012 74.4209 432.012 76.63Z" stroke="#ECEAE9" stroke-width="4" stroke-linecap="round" stroke-linejoin="round"/>
</g>
<defs>
<clipPath id="clip0_86_344">
<rect width="432" height="129" fill="white"/>
</clipPath>
</defs>
</svg>
