<svg width="450" height="399" viewBox="0 0 450 399" fill="none" xmlns="http://www.w3.org/2000/svg">
<path d="M178.929 178.509C182.649 182.82 188.12 184.624 190.39 184.988C191.255 182.981 186.943 176.016 184.678 172.783C183.577 150.978 177.092 142.645 173.987 141.204C177.126 148.956 177.174 160.216 176.806 164.877C160.776 148.205 150.555 143.067 147.449 142.582C146.578 147.457 163.063 163.534 171.414 170.962C172.556 173.834 156.829 172.366 148.823 171.273C151.315 179.526 175.341 179.218 178.929 178.509Z" fill="#ECEAE9"/>
<path d="M73.8187 35.4068C75.6937 40.7554 80.1008 44.411 82.0699 45.5702C83.6004 44.0209 82.1435 35.9935 81.2237 32.1734C88.1378 11.5335 85.1673 1.4504 82.8178 -1.01117C82.9029 7.32161 78.8504 17.7914 76.8135 21.9848C68.0427 0.704745 60.4515 -7.76453 57.7522 -9.33916C55.1723 -5.12901 64.5818 15.762 69.609 25.6812C69.6209 28.7597 55.5979 21.7039 48.5849 17.7911C47.8894 26.3546 70.2401 34.7668 73.8187 35.4068Z" fill="#ECEAE9"/>
<path d="M416.181 288.048C421.412 290.282 427.123 289.497 429.325 288.825C429.227 286.644 422.304 282.288 418.854 280.382C408.34 261.295 398.864 256.667 395.44 256.738C401.651 262.316 406.612 272.401 408.317 276.747C386.608 268.828 375.166 268.71 372.158 269.641C373.503 274.399 395.361 281.581 406.122 284.578C408.403 286.653 393.608 292.249 385.925 294.787C391.773 301.099 413.262 290.262 416.181 288.048Z" fill="#ECEAE9"/>
<path d="M325.18 273.609C329.687 277.068 335.406 277.717 337.702 277.609C338.147 275.47 332.529 269.535 329.664 266.834C324.22 245.725 316.2 238.895 312.871 238.119C317.498 245.063 319.799 256.07 320.372 260.705C301.335 247.663 290.296 244.722 287.157 244.881C287.28 249.829 306.644 262.194 316.31 267.758C318.003 270.335 302.307 272.107 294.247 272.671C298.341 280.237 321.809 275.035 325.18 273.609Z" fill="#ECEAE9"/>
<path d="M266.366 192.481C270.131 196.736 275.612 198.46 277.883 198.79C278.722 196.772 274.336 189.872 272.037 186.675C270.68 164.896 264.108 156.662 260.992 155.267C264.218 162.969 264.399 174.224 264.086 178.888C247.889 162.457 237.627 157.47 234.52 157.031C233.708 161.917 250.353 177.745 258.777 185.048C259.95 187.901 244.235 186.664 236.231 185.688C238.817 193.901 262.794 193.243 266.366 192.481Z" fill="#ECEAE9"/>
<path d="M163.119 80.4052C166.289 85.121 171.49 87.5546 173.694 88.182C174.789 86.2922 171.349 78.8719 169.492 75.3979C170.996 53.6266 165.569 44.594 162.667 42.7992C164.852 50.8623 163.559 62.0438 162.64 66.6266C148.756 48.1957 139.25 41.896 136.232 41.05C134.79 45.7863 149.196 63.6785 156.579 72.0326C157.367 75.0164 141.973 71.7125 134.178 69.6875C135.664 78.1716 159.484 80.6882 163.119 80.4052Z" fill="#ECEAE9"/>
</svg>
