<svg width="27" height="25" viewBox="0 0 27 25" fill="none" xmlns="http://www.w3.org/2000/svg">
<path d="M9.40953 16.1856C9.55034 16.4252 9.72961 16.6595 9.94078 16.8565C9.60147 17.4477 9.28154 18.1086 9.17906 18.588L9.14 18.8262C9.0693 19.441 9.13584 20.44 9.23668 21.2882L9.29722 21.7462C9.35937 22.1818 9.42391 22.5427 9.46714 22.7745C9.83193 22.8757 10.1272 23.0566 10.3705 23.211C10.3727 23.2128 10.3754 23.2139 10.3773 23.2149C10.3805 23.2166 10.3831 23.2186 10.3832 23.2218C10.5751 23.142 10.7804 23.0727 11.0043 23.0089C10.9784 22.9077 10.9505 22.8017 10.9212 22.6915L10.7865 22.172C10.5904 21.3843 10.3891 20.4907 10.3334 19.7979L10.3187 19.5147C10.3123 18.8276 10.46 17.9911 10.6136 17.3253C10.8567 17.4476 11.1319 17.528 11.4388 17.544C11.5411 17.5493 11.6442 17.5439 11.7464 17.5333C11.5992 18.1724 11.4647 18.9448 11.4711 19.504C11.4775 20.042 11.6958 21.0965 11.9134 21.9805C11.9967 22.3108 12.0735 22.6038 12.1439 22.8595C13.0374 22.8907 13.8976 23.1209 14.7552 23.3507C15.0709 23.4352 15.3866 23.5203 15.7035 23.5948L15.3197 24.5001L14.7484 24.3302C13.1244 23.8403 11.7942 23.4395 10.0882 24.5001L9.9564 24.3663C9.27752 23.7358 8.28394 23.6962 7.14976 24.3399L6.52183 23.5303C7.11073 23.2215 7.65558 22.9823 8.30211 22.7852L8.29918 22.7696C8.27044 22.5996 8.23586 22.3937 8.19957 22.1602L8.09019 21.3839C7.96855 20.3825 7.86654 19.232 8.03941 18.4171C8.15468 17.8859 8.41365 17.3156 8.70347 16.7852L8.99937 16.2706C9.13368 16.2493 9.26883 16.2229 9.40953 16.1856ZM18.8919 0.515701C19.9802 0.624937 20.7938 0.998825 21.1332 1.88386C24.5449 2.74105 27.443 8.2442 26.7738 7.93074L26.6976 7.88191C24.9357 4.66889 23.9751 3.99428 22.6 3.60457L21.9808 3.44832C21.8533 3.41857 20.8478 3.2228 20.7103 3.18953C20.1881 3.12593 19.4081 3.57723 19.597 4.20418L19.6478 4.33211C19.8147 4.66496 19.9701 5.03516 20.1078 5.40633C20.4242 6.25972 20.6478 7.12209 20.7103 7.56746C20.8959 8.90427 19.417 10.9316 18.6166 11.7999L18.2611 12.1788C16.5275 13.9802 15.4489 14.4785 12.8802 15.2374C12.6498 15.8604 12.0534 16.7387 11.5541 16.7178C11.0397 16.7285 10.6583 16.2748 10.3578 15.7911L10.0824 15.3136C10.0516 15.2579 10.0215 15.2038 9.99254 15.1524C9.6239 15.1886 9.26143 15.2317 8.90269 15.2745L8.30601 15.3438C6.91349 15.5005 5.51953 15.5908 3.84507 15.1837C-2.3145 18.8748 -0.395562 11.5505 4.83433 10.2774C5.10709 10.1275 5.35838 9.96905 5.598 9.80672L6.29429 9.3116C8.11815 7.98331 9.92261 6.6698 17.2406 7.56746C17.8465 7.62217 18.1937 7.37899 18.0394 6.80867L18.0013 6.69051C17.935 6.50739 17.8646 6.32119 17.7914 6.13386L17.5668 5.56941C17.3629 5.05996 17.1592 4.5508 17.0013 4.07039L16.8597 3.59969C16.7856 3.32149 16.734 3.05729 16.7152 2.81355L16.7054 2.56258C16.6999 1.33468 17.3684 0.490788 18.6166 0.500076C18.706 0.50115 18.7962 0.506151 18.8919 0.515701ZM18.2962 5.27742L18.5228 5.84773C18.5979 6.03974 18.6716 6.23249 18.7406 6.42293L18.7953 6.59773C18.9091 7.02026 18.907 7.53765 18.5189 7.94148C18.1264 8.34965 17.5651 8.38549 17.1693 8.34969L17.1566 8.34871L17.1449 8.34773C13.5292 7.90422 11.3538 8.01822 9.89 8.36922C8.81475 8.62711 8.09462 9.01759 7.4232 9.47273L6.75718 9.94734C6.30483 10.2768 5.80857 10.6387 5.21324 10.9659L5.12144 11.0167L5.01988 11.0411C3.87 11.3211 2.89196 11.9368 2.15953 12.6593C1.41774 13.3911 0.973102 14.1863 0.833355 14.7735C0.76307 15.0692 0.784757 15.2472 0.812848 15.3262C0.828037 15.369 0.838269 15.3836 0.898785 15.4024C0.999206 15.4335 1.24033 15.4573 1.68882 15.3292C2.12856 15.2035 2.70863 14.9492 3.44175 14.5098L3.71812 14.3438L4.0316 14.42C5.79271 14.8482 7.21123 14.684 8.80992 14.4932L9.91539 14.3702L10.4252 14.3194L10.6771 14.7657C10.708 14.8204 10.7393 14.8775 10.7699 14.9327L11.0257 15.3761C11.1094 15.5111 11.1932 15.6326 11.2816 15.7345C11.3652 15.8308 11.4313 15.8837 11.4769 15.9102C11.4887 15.917 11.4993 15.9207 11.5072 15.9239C11.5551 15.8881 11.6258 15.8241 11.7084 15.7227C11.8913 15.4979 12.0563 15.1991 12.1429 14.9649L12.2796 14.5948L12.6576 14.4835C14.0203 14.0809 14.8881 13.7717 15.6478 13.3292C16.3054 12.946 16.915 12.443 17.6947 11.6329L18.0394 11.2667C18.406 10.8689 18.9385 10.1925 19.3509 9.4698C19.7872 8.70519 19.9854 8.06615 19.932 7.67683L19.8656 7.32332C19.803 7.04263 19.7052 6.67962 19.5794 6.28621L19.3705 5.67879C19.331 5.57239 19.2872 5.46805 19.2455 5.36433L18.0824 4.73054C18.1518 4.90791 18.2217 5.0911 18.2962 5.27742ZM18.6087 1.28621C18.1488 1.28323 17.8951 1.43899 17.7464 1.62801C17.5811 1.83837 17.4584 2.20407 17.4994 2.75301L17.514 2.89461C17.5343 3.04285 17.5696 3.2104 17.6195 3.39754L17.6859 3.61824L18.7992 4.22566C18.7697 4.03114 18.7788 3.83473 18.8314 3.64363C18.9219 3.31509 19.1189 3.0612 19.3255 2.88191C19.6381 2.61078 20.0657 2.43207 20.4906 2.4034L20.3998 2.16511C20.2418 1.75312 19.8917 1.47298 19.1546 1.34383L18.8138 1.29793C18.7416 1.29073 18.6751 1.28704 18.6087 1.28621Z" fill="#72716C"/>
<path d="M18.8914 0.515457C19.9798 0.624635 20.7932 0.998603 21.1326 1.88362C25.1736 2.46494 27.6302 8.6061 26.6971 7.88167C24.6831 4.20885 23.7165 3.85315 21.9803 3.44807C21.8523 3.41824 20.8458 3.22229 20.7098 3.18928C20.1528 3.12147 19.302 3.63979 19.6473 4.33186L20.1072 5.40608L19.5242 5.06917L17.3621 3.89046L16.8592 3.59944L16.7146 2.81331C16.6122 1.451 17.2845 0.489935 18.616 0.499832C18.7055 0.500895 18.7955 0.505895 18.8914 0.515457Z" fill="#72716C"/>
</svg>
