<svg width="161" height="243" viewBox="0 0 161 243" fill="none" xmlns="http://www.w3.org/2000/svg">
<path d="M114.961 125.891C117.236 128.528 120.582 129.631 121.97 129.854C122.499 128.627 119.862 124.366 118.477 122.39C117.803 109.054 113.837 103.958 111.939 103.077C113.859 107.818 113.888 114.704 113.663 117.555C103.86 107.358 97.609 104.216 95.7091 103.92C95.1765 106.901 105.258 116.733 110.365 121.276C111.063 123.032 101.446 122.135 96.5493 121.466C98.0738 126.514 112.767 126.325 114.961 125.891Z" fill="#D7D6D5"/>
<path d="M39.7305 26.5861C40.8766 29.8637 43.5723 32.1032 44.7768 32.8132C45.7135 31.8635 44.8236 26.9442 44.2615 24.6033C48.4954 11.9531 46.6799 5.77428 45.2429 4.26615C45.2934 9.3728 42.8122 15.7899 41.5652 18.3601C36.203 5.3204 31.5601 0.131469 29.909 -0.833042C28.3298 1.74757 34.0828 14.5487 37.1567 20.6267C37.1634 22.5133 28.5853 18.1917 24.2954 15.7951C23.8683 21.0433 37.5412 26.1946 39.7305 26.5861Z" fill="#D7D6D5"/>
<path d="M168.46 179.492C171.232 181.612 174.747 182.014 176.158 181.949C176.43 180.64 172.974 177.003 171.212 175.348C167.852 162.423 162.919 158.237 160.872 157.759C163.72 162.013 165.142 168.752 165.497 171.59C153.788 163.594 147.003 161.787 145.073 161.882C145.152 164.911 157.06 172.493 163.005 175.905C164.047 177.483 154.402 178.558 149.449 178.898C151.97 183.533 166.389 180.363 168.46 179.492Z" fill="#D7D6D5"/>
<path d="M164.19 129.685C166.501 132.291 169.862 133.35 171.253 133.554C171.766 132.32 169.072 128.095 167.661 126.137C166.811 112.812 162.777 107.769 160.866 106.913C162.849 111.628 162.969 118.513 162.781 121.366C152.841 111.301 146.547 108.242 144.643 107.97C144.15 110.959 154.364 120.656 159.532 125.131C160.254 126.877 150.622 126.107 145.716 125.504C147.307 130.53 162.001 130.148 164.19 129.685Z" fill="#D7D6D5"/>
<path d="M93.8566 49.0118C95.7964 51.8981 98.9774 53.3889 100.325 53.7735C100.994 52.6176 98.8884 48.0764 97.7519 45.9503C98.6645 32.6303 95.3425 27.102 93.5674 26.0028C94.9062 30.9369 94.1196 37.7777 93.559 40.5813C85.063 29.2999 79.2479 25.4423 77.4023 24.9236C76.522 27.821 85.3369 38.773 89.8543 43.8869C90.3373 45.7127 80.9232 43.686 76.1558 42.4444C77.0669 47.6358 91.6336 49.1836 93.8566 49.0118Z" fill="#D7D6D5"/>
</svg>
