<svg width="38" height="34" viewBox="0 0 38 34" fill="none" xmlns="http://www.w3.org/2000/svg">
<path d="M13.2978 22.1934C13.4916 22.523 13.7386 22.8452 14.0293 23.1162C13.5624 23.9296 13.1214 24.8386 12.9804 25.4981L12.9511 25.6533C12.8173 26.4746 12.9119 27.9628 13.0605 29.2129L13.1435 29.8438C13.229 30.4427 13.3175 30.9391 13.3769 31.2578C13.8789 31.3971 14.2844 31.6459 14.6191 31.8584C14.6224 31.8612 14.626 31.8628 14.6289 31.8643C14.6334 31.8666 14.6367 31.8686 14.6367 31.8731C14.9009 31.7632 15.183 31.668 15.4912 31.5801C15.4556 31.4409 15.4171 31.2952 15.3769 31.1436L15.1914 30.4297C14.9216 29.3461 14.646 28.1162 14.5693 27.1631L14.5488 26.7725C14.54 25.8273 14.7427 24.6766 14.9541 23.7608C15.2888 23.9293 15.668 24.0396 16.0908 24.0615C16.2314 24.0688 16.3721 24.0615 16.5127 24.0469C16.3101 24.9261 16.126 25.9885 16.1347 26.7578C16.1435 27.4979 16.4427 28.9497 16.7421 30.166C16.8566 30.6201 16.9627 31.0234 17.0595 31.375C18.2889 31.4179 19.4713 31.7347 20.6513 32.0508C21.0859 32.1672 21.5208 32.2832 21.957 32.3858L21.4287 33.6319L20.6425 33.3975C18.4083 32.7236 16.5784 32.1725 14.2314 33.6319L14.0507 33.4473C13.1166 32.5796 11.7492 32.526 10.1884 33.4121L9.32515 32.2979C10.1355 31.8729 10.8847 31.5436 11.7744 31.2725L11.7705 31.251C11.7111 30.8999 11.6332 30.4375 11.5576 29.9024L11.4834 29.3447C11.3264 28.0531 11.1931 26.5813 11.373 25.4785L11.413 25.2637C11.598 24.411 12.0526 23.485 12.5293 22.6582L12.7343 22.3106C12.9192 22.2813 13.1042 22.2446 13.2978 22.1934ZM25.9648 0.614275C26.0881 0.615743 26.2116 0.622573 26.3437 0.635759C27.8411 0.786003 28.9599 1.30076 29.4267 2.51857C34.1208 3.6977 38.1078 11.2692 37.1865 10.8369L37.081 10.7695C34.4837 6.03292 33.1533 5.30587 31.0293 4.77443L30.5927 4.66994C30.4176 4.62909 29.035 4.36027 28.8457 4.31447C28.1032 4.2236 26.9804 4.88992 27.3437 5.79787L27.3828 5.88674C27.6123 6.34461 27.8262 6.85273 28.0156 7.3633C28.451 8.53754 28.7597 9.72413 28.8457 10.3369C29.1009 12.1762 27.0658 14.9658 25.9648 16.1602L25.4746 16.6807C23.0895 19.159 21.6065 19.8446 18.0722 20.8887C17.7551 21.7459 16.936 22.9548 16.249 22.9258C15.4231 22.9434 14.8457 22.0906 14.4043 21.3174L14.2236 20.9932C14.1811 20.9165 14.1395 20.8423 14.0996 20.7715C13.5924 20.8212 13.0951 20.8806 12.6015 20.9395L11.7793 21.0361C9.86372 21.2517 7.94687 21.3755 5.64351 20.8154C-2.83047 25.8935 -0.19109 15.8158 7.00386 14.0645C7.56675 13.7551 8.06193 13.4203 8.53902 13.0791L9.01167 12.7363C11.521 10.9088 14.0029 9.10191 24.0712 10.3369C24.9606 10.4174 25.4438 10.0318 25.1181 9.13088C25.0269 8.87894 24.9288 8.62298 24.8281 8.36525L24.5205 7.58888C24.1931 6.77076 23.8655 5.95309 23.6386 5.19826L23.5478 4.87892C23.4457 4.49603 23.3745 4.13234 23.3486 3.79689L23.3349 3.45217C23.3271 1.76245 24.2471 0.60125 25.9648 0.614275ZM25.5244 7.18654L25.8359 7.9717L26.1347 8.76271L26.2109 9.00295C26.3675 9.58429 26.3641 10.296 25.83 10.8516C25.3575 11.3431 24.7073 11.4426 24.1875 11.4268L23.9736 11.4141L23.956 11.4121L23.9394 11.4102C18.9649 10.8 15.9727 10.9565 13.9589 11.4395C12.233 11.8534 11.173 12.5164 10.1074 13.2783L9.64839 13.6104C9.1036 14.0071 8.51327 14.4386 7.82515 14.8418L7.52437 15.0127L7.39839 15.082L7.25972 15.1153C5.67724 15.5004 4.331 16.3485 3.3232 17.3428C2.30275 18.3497 1.69206 19.4431 1.49996 20.251C1.40327 20.6578 1.43299 20.902 1.47164 21.0108C1.49256 21.0696 1.50642 21.0904 1.5898 21.1162C1.72795 21.1589 2.0596 21.1919 2.67671 21.0156C3.28166 20.8428 4.07821 20.4921 5.08687 19.8877L5.46773 19.6602L5.89839 19.7647C8.32148 20.3539 10.2732 20.1277 12.4726 19.8653L13.2226 19.7774C13.4763 19.7485 13.7338 19.7208 13.9941 19.6953L14.6953 19.626L15.041 20.2403C15.0835 20.3155 15.1268 20.3938 15.1689 20.4697L15.3476 20.7871C15.5226 21.0932 15.6907 21.362 15.873 21.5723C15.9884 21.7053 16.0797 21.778 16.1425 21.8145C16.1591 21.8241 16.1735 21.8286 16.1845 21.833C16.2505 21.7837 16.3475 21.6959 16.4609 21.5567C16.7126 21.2474 16.9384 20.8359 17.0576 20.5137L17.246 20.0049L17.7656 19.8516L18.4384 19.6494C19.9376 19.1885 20.966 18.7956 21.8808 18.2627C22.9145 17.6605 23.8609 16.8441 25.1699 15.4268L25.3691 15.2041C25.8549 14.6458 26.4779 13.8244 26.9746 12.9541C27.5749 11.9021 27.8479 11.023 27.7744 10.4873L27.7382 10.2686C27.646 9.78096 27.4401 8.99787 27.1523 8.16115L27.0019 7.73927C26.9481 7.59423 26.8908 7.45103 26.8339 7.30959L25.2246 6.43166C25.3205 6.67696 25.4212 6.92877 25.5244 7.18654ZM25.9541 1.69533C25.3208 1.69111 24.9712 1.9058 24.7666 2.16603C24.5392 2.45551 24.3703 2.95888 24.4267 3.71388L24.4482 3.90822C24.4761 4.1122 24.5241 4.3431 24.5927 4.6006L24.6757 4.89162C24.6768 4.89515 24.6776 4.89883 24.6787 4.90236L26.2148 5.74025C26.1742 5.47226 26.1882 5.20176 26.2607 4.93849C26.3852 4.48639 26.6551 4.13733 26.9394 3.89064C27.3691 3.51779 27.9568 3.27021 28.541 3.23049L28.4169 2.90529C28.1685 2.25729 27.5756 1.8464 26.2353 1.71193V1.71095C26.1362 1.70109 26.0452 1.69647 25.9541 1.69533Z" fill="#72716C"/>
<path d="M25.9652 0.614062C26.0882 0.615535 26.2113 0.622399 26.3431 0.635546C27.8406 0.785764 28.9593 1.30049 29.4261 2.51836C34.9854 3.3181 38.3652 11.7662 37.0814 10.7693C34.3109 5.71682 32.9814 5.22696 30.5931 4.66973C30.4179 4.62884 29.0323 4.35969 28.8451 4.31426C28.0787 4.22056 26.9075 4.93398 27.3832 5.88652L28.015 7.36308L27.2132 6.90019L24.2396 5.27812L23.5482 4.87871L23.349 3.79668C23.2081 1.92228 24.133 0.600139 25.9652 0.614062Z" fill="#72716C"/>
</svg>
